<svg xmlns="http://www.w3.org/2000/svg" width="1280" height="640" viewBox="0 0 1280 640" role="img" aria-labelledby="title desc">
  <title id="title">GoldenPath social preview</title>
  <desc id="desc">GoldenPath evidence-backed platform engineering with R0-R4, fail-closed, digest-bound, and proof-scoped assurance.</desc>
  <rect width="1280" height="640" fill="#08101f"/>
  <g stroke="#0d192e" stroke-width="1">
    <path d="M0 80H1280M0 160H1280M0 240H1280M0 320H1280M0 400H1280M0 480H1280M0 560H1280"/>
    <path d="M80 0V640M160 0V640M240 0V640M320 0V640M400 0V640M480 0V640M560 0V640M640 0V640M720 0V640M800 0V640M880 0V640M960 0V640M1040 0V640M1120 0V640M1200 0V640"/>
  </g>
  <rect x="70" y="72" width="1140" height="496" rx="28" fill="#111d35" stroke="#273a5e" stroke-width="2"/>
  <rect x="70" y="72" width="14" height="496" fill="#f6c453"/>
  <text x="125" y="190" fill="#f7f9fc" font-family="Inter,Segoe UI,Arial,sans-serif" font-size="74" font-weight="800">GoldenPath</text>
  <text x="127" y="260" fill="#f6c453" font-family="Inter,Segoe UI,Arial,sans-serif" font-size="36" font-weight="700">Evidence-backed platform engineering</text>
  <text x="127" y="330" fill="#aebbd0" font-family="Inter,Segoe UI,Arial,sans-serif" font-size="28">Kubernetes  ·  GitOps  ·  Terraform  ·  Policy as Code</text>
  <g font-family="Inter,Segoe UI,Arial,sans-serif" font-size="22" font-weight="800">
    <rect x="127" y="382" width="145" height="48" rx="24" fill="#0b172b" stroke="#46628f" stroke-width="2"/>
    <text x="145" y="414" fill="#f6c453">R0 → R4</text>
    <rect x="292" y="382" width="190" height="48" rx="24" fill="#0b172b" stroke="#46628f" stroke-width="2"/>
    <text x="310" y="414" fill="#8bb4ff">FAIL CLOSED</text>
    <rect x="502" y="382" width="198" height="48" rx="24" fill="#0b172b" stroke="#46628f" stroke-width="2"/>
    <text x="520" y="414" fill="#8bb4ff">DIGEST BOUND</text>
    <rect x="720" y="382" width="205" height="48" rx="24" fill="#0b172b" stroke="#46628f" stroke-width="2"/>
    <text x="738" y="414" fill="#8bb4ff">PROOF SCOPED</text>
  </g>
  <text x="127" y="520" fill="#f7f9fc" font-family="Inter,Segoe UI,Arial,sans-serif" font-size="25">Repository/reference evidence ≠ runtime evidence ≠ production validation</text>
</svg>
